<svg xmlns="http://www.w3.org/2000/svg" viewBox="0 0 471.72 146.03"><defs><style>.cls-1{fill:#1d1d1b;}.cls-2{fill:#74c2be;}</style></defs><title>Datový zdroj 2</title><g id="Vrstva_2" data-name="Vrstva 2"><g id="Vrstva_1-2" data-name="Vrstva 1"><path class="cls-1" d="M63.87,130.47c.14,6.66,3.91,11.59,10.92,14.28L78.13,146,78,142.46c-.08-1.93-.23-3.77-.38-5.6-.2-2.54-.4-5.07-.42-7.75-.07-7.37,1.09-17.48,10.08-41.64l1.61-7.76-2.21-.52a86.58,86.58,0,0,1-8.9-2.89c-6.61-2.38-14.09-5.07-20.86-5C49.29,71.35,44.62,75,43,82.18l-.65,2.88,2.95,0c2.35,0,4.34-.1,6.18-.16,1.52,0,2.92-.1,4.33-.11A68.9,68.9,0,0,1,71,86.37c-2.21,22.27-16.28,48.19-31.5,48.32-12.41.12-20.87-12.3-21-30.9C18.16,65.92,50.18,11.4,72.88,11.2c7.17-.07,8,3.8,8.06,6.73.08,8.51-8,21.52-12.24,24.56l-1.57,1.15L68,45.4c1.63,3.36,4.36,5.27,7.51,5.24C85.5,50.55,92.86,36,92.74,23,92.61,9.32,85,1.23,72.28,1.35,38.09,1.66-.41,54.48,0,100.51c.25,27,14.3,45,35,44.76C45.5,145.18,55.19,140.21,63.87,130.47Z"/><path class="cls-1" d="M149.8,100.19c-9,16.22-23.05,27.16-35,27.27-7.47.06-11.3-4-11.38-12a26.34,26.34,0,0,1,.29-4.08c20.72-2.87,42.93-17.94,42.78-35.95-.08-8.29-4.74-12.82-13.15-12.74-22.26.21-45.83,30.93-45.64,52.4.13,13.56,9.39,22.24,23.58,22.11,13.31-.13,27-7.84,37-20.57.77,11.36,6.59,17.76,16.23,17.68,7-.07,13.63-3.53,19.88-10.32,1.27,8.14,6.78,13,15,12.93,8.42-.07,15.59-6,23.18-15.32.94,6.21,5.64,12.13,14.7,12,8.65-.08,18.32-6,26-15.51.55,11.64,6.84,18,17.81,17.88,10.7-.1,21.48-6.11,30.32-16.69,1.28,8.6,7.2,16.35,15.92,16.26,11.4-.1,22.32-11.92,30.21-28.42,3.95,5.73,9.82,9.1,16.11,9.05,5.63-.06,13.54-2.94,19.23-16.41l.7-1.68-6-4.55-1.21,2.64c-4.89,10.58-8.85,11.83-11.4,11.86-4.77,0-9.76-4.39-9.82-11.87,0-4.91,2.16-9.81,3.94-13.75,1.45-3.21,2.6-5.76,2.58-8,0-3.17-2.49-9.05-8.29-9h0c-1.82-2.28-4.71-3.41-8.62-3.37-16.81.15-33.3,19.87-40.18,38.08-8.27,15.64-18.66,24.67-28.53,24.76-4.14,0-7.32-.78-7.42-11.39-.08-10,2.65-21.57,8.36-35.3h1a292.43,292.43,0,0,0,30.56-2.36l2.08-.25-.07-7.79-2.57.29c-9,1-17.79,1.18-24.4,1.24l-2.64,0c3.83-8,7.93-15.31,11.61-21.89C308.76,36.2,312,30.15,312,26.34a6,6,0,0,0-6-6.08c-9.79.09-23.86,29.85-31.09,48.6-1.7-.1-3.14-.26-4.34-.37l-4-.38.06,7.33,1.55.54A25.41,25.41,0,0,0,272,77a198.75,198.75,0,0,0-6.71,23.25C255.9,115.83,246.63,123,241.94,123c-2.78,0-3.55-3.39-3.57-5.21,0-4.26,3.26-10.14,5.9-14.85,2.49-4.44,3.9-7,3.89-9.19s-1.44-3.59-3.14-4.59c5.57-1.39,6.83-5.69,6.8-9.4-.09-8.85-7.73-15.2-18.17-15.11-19.6.18-41.28,23.52-47.73,44.38-5.76,9.48-11.77,14.93-16.53,15-1.29,0-5.24,0-5.34-10.88A78.61,78.61,0,0,1,165.92,97c24.85-21.41,45.47-65.39,45.32-82-.05-4.72-2.15-15.06-8.16-15C189.73.12,156.87,65.57,149.8,100.19Zm51.45-80.54C200.79,29.94,186.86,59.7,170.8,80,180.25,52.34,196.09,25.32,201.25,19.65Zm-68.35,53a2.58,2.58,0,0,1,1.09.14s.2.31.21,1.47c.1,11.38-15.54,22.12-27.87,27.6C112,87.05,124.6,72.77,132.9,72.69ZM352,86.81a44.29,44.29,0,0,0,1,9.61C346.63,111.56,336.7,121,331,121c-3.79,0-4.24-4.47-4.26-6.41-.1-11.31,10.94-36.88,26.84-40.71A41.1,41.1,0,0,0,352,86.81Zm-149,38.3c-.93,0-2.32,0-2.36-4.36-.13-15.34,17.82-46.6,32.75-46.73,4,0,6.12,2.41,6.17,7.26a22.13,22.13,0,0,1-.73,5.42l-.15.54-1.07,0-.83,1.25C229.49,99.41,212.4,125,203,125.11Z"/><path class="cls-2" d="M420.1,118.1l-3.2.07c-5.2.79-10.47,4.63-10.43,9.37,0,4.18,3.23,7,7.92,6.93,5.6-.06,11.25-5.12,11.21-10C425.57,120.78,423.58,118.52,420.1,118.1Z"/><path class="cls-2" d="M421.59,111.51c11.46-17.07,50.23-93.06,50.13-104.15a6,6,0,0,0-5.85-6.25c-10.33.09-22.78,31.33-39.36,75.77-3.92,10.43-9.28,24.72-9.2,33.35V112C418.12,113,419.43,113.28,421.59,111.51Z"/></g></g></svg>